<svg xmlns="http://www.w3.org/2000/svg" xmlns:ooo="http://xml.openoffice.org/svg/export" xmlns:svg="http://www.w3.org/2000/svg" id="svg2" width="99.912" height="118.729" clip-path="url(#presentation_clip_path)" style="fill-rule:evenodd;stroke-width:28.22200012;stroke-linejoin:round" preserveAspectRatio="xMidYMid" version="1.2" viewBox="0 0 2819.739 3350.8" xml:space="preserve"><metadata id="metadata153"/><defs id="defs4" class="ClipPathGroup"><clipPath id="presentation_clip_path" clipPathUnits="userSpaceOnUse"><rect id="rect7" width="21000" height="29700" x="0" y="0"/></clipPath></defs><defs id="defs13" class="EmbeddedBulletChars"><g id="bullet-char-template(57356)" transform="scale(4.8828125e-4,-4.8828125e-4)"><path id="path16" d="M 580,1141 1163,571 580,0 -4,571 580,1141 z"/></g><g id="bullet-char-template(57354)" transform="scale(4.8828125e-4,-4.8828125e-4)"><path id="path19" d="m 8,1128 1129,0 L 1137,0 8,0 8,1128 z"/></g><g id="bullet-char-template(10146)" transform="scale(4.8828125e-4,-4.8828125e-4)"><path id="path22" d="M 174,0 602,739 174,1481 1456,739 174,0 z m 1184,739 -1049,607 350,-607 699,0 z"/></g><g id="bullet-char-template(10132)" transform="scale(4.8828125e-4,-4.8828125e-4)"><path id="path25" d="M 2015,739 1276,0 717,0 l 543,543 -1086,0 0,393 1086,0 -543,545 557,0 741,-742 z"/></g><g id="bullet-char-template(10007)" transform="scale(4.8828125e-4,-4.8828125e-4)"><path id="path28" d="m 0,-2 c -7,16 -16,29 -25,39 l 381,530 c -94,256 -141,385 -141,387 0,25 13,38 40,38 9,0 21,-2 34,-5 21,4 42,12 65,25 l 27,-13 111,-251 280,301 64,-25 24,25 c 21,-10 41,-24 62,-43 C 886,937 835,863 770,784 769,783 710,716 594,584 L 774,223 c 0,-27 -21,-55 -63,-84 l 16,-20 C 717,90 699,76 672,76 641,76 570,178 457,381 L 164,-76 c -22,-34 -53,-51 -92,-51 -42,0 -63,17 -64,51 -7,9 -10,24 -10,44 0,9 1,19 2,30 z"/></g><g id="bullet-char-template(10004)" transform="scale(4.8828125e-4,-4.8828125e-4)"><path id="path31" d="M 285,-33 C 182,-33 111,30 74,156 52,228 41,333 41,471 c 0,78 14,145 41,201 34,71 87,106 158,106 53,0 88,-31 106,-94 l 23,-176 c 8,-64 28,-97 59,-98 l 735,706 c 11,11 33,17 66,17 42,0 63,-15 63,-46 l 0,-122 c 0,-36 -10,-64 -30,-84 L 442,47 C 390,-6 338,-33 285,-33 z"/></g><g id="bullet-char-template(9679)" transform="scale(4.8828125e-4,-4.8828125e-4)"><path id="path34" d="M 813,0 C 632,0 489,54 383,161 276,268 223,411 223,592 c 0,181 53,324 160,431 106,107 249,161 430,161 179,0 323,-54 432,-161 108,-107 162,-251 162,-431 0,-180 -54,-324 -162,-431 C 1136,54 992,0 813,0 z"/></g><g id="bullet-char-template(8226)" transform="scale(4.8828125e-4,-4.8828125e-4)"><path id="path37" d="m 346,457 c -73,0 -137,26 -191,78 -54,51 -81,114 -81,188 0,73 27,136 81,188 54,52 118,78 191,78 73,0 134,-26 185,-79 51,-51 77,-114 77,-187 0,-75 -25,-137 -76,-188 -50,-52 -112,-78 -186,-78 z"/></g><g id="bullet-char-template(8211)" transform="scale(4.8828125e-4,-4.8828125e-4)"><path id="path40" d="m -4,459 1139,0 0,147 -1139,0 0,-147 z"/></g></defs><g id="g49" class="SlideGroup" transform="matrix(0.2,0,0,0.2,-698.73032,-1313.0001)"><g id="g51"><g id="id1" class="Slide" clip-path="url(#presentation_clip_path)"><g id="g54" class="Page"><g id="g56" class="Group"><g id="g58" class="Group"><g id="g60" class="Group"><g id="g62" class="Group"><g id="g64" class="com.sun.star.drawing.CustomShape"><g id="id3"><path id="path67" d="m 6332,10547 c -318,319 -318,955 0,1273 l 7213,7213 c 318,318 955,319 1273,0 l 0,0 c 319,-318 318,-955 0,-1273 L 7605,10547 c -318,-318 -954,-318 -1273,0 l 0,0 z m -636,637 0,0 z m 9759,7212 0,0 z" style="fill:#f9c;stroke:none"/></g></g><g id="g69" class="com.sun.star.drawing.CustomShape"><g id="id4"><path id="path72" d="m 14818,10547 c -319,-318 -955,-318 -1273,0 l -7213,7213 c -318,318 -319,955 0,1273 l 0,0 c 318,319 955,318 1273,0 l 7213,-7213 c 318,-318 318,-954 0,-1273 l 0,0 z m -637,-636 0,0 z m -7212,9759 0,0 z" style="fill:#f9c;stroke:none"/></g></g></g><g id="g74" class="com.sun.star.drawing.CustomShape"><g id="id5"><path id="path77" d="m 7445,17917 c 261,261 262,661 1,922 -261,261 -661,261 -922,0 -261,-261 -260,-661 1,-922 261,-261 659,-261 920,0 z m -460,-460 0,0 z m 0,1844 0,0 z" style="fill:#666;stroke:none"/><path id="path79" d="m 7445,17917 c 261,261 262,661 1,922 -261,261 -661,261 -922,0 -261,-261 -260,-661 1,-922 261,-261 659,-261 920,0 z" style="fill:none;stroke:#3465af"/><path id="path81" d="m 6985,17457 0,0 z" style="fill:none;stroke:#3465af"/><path id="path83" d="m 6985,19301 0,0 z" style="fill:none;stroke:#3465af"/></g></g><g id="g85" class="com.sun.star.drawing.CustomShape"><g id="id6"><path id="path88" d="m 14587,10777 c 261,261 262,661 1,922 -261,261 -661,261 -922,0 -261,-261 -260,-661 1,-922 261,-261 659,-261 920,0 z m -460,-460 0,0 z m 0,1844 0,0 z" style="fill:#666;stroke:none"/><path id="path90" d="m 14587,10777 c 261,261 262,661 1,922 -261,261 -661,261 -922,0 -261,-261 -260,-661 1,-922 261,-261 659,-261 920,0 z" style="fill:none;stroke:#3465af"/><path id="path92" d="m 14127,10317 0,0 z" style="fill:none;stroke:#3465af"/><path id="path94" d="m 14127,12161 0,0 z" style="fill:none;stroke:#3465af"/></g></g></g><g id="g96" class="com.sun.star.drawing.CustomShape"><g id="id7"><path id="path99" d="m 7409,10689 c 261,261 262,661 1,922 -261,261 -661,261 -922,0 -261,-261 -260,-661 1,-922 261,-261 659,-261 920,0 z m -460,-460 0,0 z m 0,1844 0,0 z" style="fill:#666;stroke:none"/><path id="path101" d="m 7409,10689 c 261,261 262,661 1,922 -261,261 -661,261 -922,0 -261,-261 -260,-661 1,-922 261,-261 659,-261 920,0 z" style="fill:none;stroke:#3465af"/><path id="path103" d="m 6949,10229 0,0 z" style="fill:none;stroke:#3465af"/><path id="path105" d="m 6949,12073 0,0 z" style="fill:none;stroke:#3465af"/></g></g><g id="g107" class="com.sun.star.drawing.CustomShape"><g id="id8"><path id="path110" d="m 14693,17973 c 261,261 262,661 1,922 -261,261 -661,261 -922,0 -261,-261 -260,-661 1,-922 261,-261 659,-261 920,0 z m -460,-460 0,0 z m 0,1844 0,0 z" style="fill:#666;stroke:none"/><path id="path112" d="m 14693,17973 c 261,261 262,661 1,922 -261,261 -661,261 -922,0 -261,-261 -260,-661 1,-922 261,-261 659,-261 920,0 z" style="fill:none;stroke:#3465af"/><path id="path114" d="m 14233,17513 0,0 z" style="fill:none;stroke:#3465af"/><path id="path116" d="m 14233,19357 0,0 z" style="fill:none;stroke:#3465af"/></g></g><g id="g118" class="com.sun.star.drawing.CustomShape"><g id="id9"><path id="path121" d="m 8459,14836 31,-2051 4103,62 -62,4103 -4103,-63 31,-2051 z" style="fill:#f9c;stroke:none"/></g></g></g><g id="g123" class="com.sun.star.drawing.CustomShape"><g id="id10"><path id="path126" d="m 16552,8897 c 1322,1322 1322,3342 0,4664 -1322,1322 -3342,1322 -4664,0 -1322,-1322 -1322,-3342 0,-4664 1322,-1322 3342,-1322 4664,0 z m -2332,-2332 0,0 z m 0,9329 0,0 z" style="fill:#ccc;fill-opacity:.50199998;stroke:#fff;stroke-opacity:.50199998"/><path id="path128" d="m 16552,8897 c 1322,1322 1322,3342 0,4664 -1322,1322 -3342,1322 -4664,0 -1322,-1322 -1322,-3342 0,-4664 1322,-1322 3342,-1322 4664,0 z" style="fill:none;stroke:#ccc;stroke-width:100"/></g></g><g id="g130" class="com.sun.star.drawing.CustomShape"><g id="id11"><path id="path133" d="m 9269,16181 c 1322,1322 1322,3342 0,4664 -1322,1322 -3342,1322 -4664,0 -1322,-1322 -1322,-3342 0,-4664 1322,-1322 3342,-1322 4664,0 z m -2332,-2332 0,0 z m 0,9329 0,0 z" style="fill:#ddd;fill-opacity:.50199998;stroke:#fff;stroke-opacity:.50199998"/><path id="path135" d="m 9269,16181 c 1322,1322 1322,3342 0,4664 -1322,1322 -3342,1322 -4664,0 -1322,-1322 -1322,-3342 0,-4664 1322,-1322 3342,-1322 4664,0 z" style="fill:none;stroke:#ccc;stroke-width:100"/></g></g><g id="g137" class="com.sun.star.drawing.CustomShape"><g id="id12"><path id="path140" d="m 9198,9039 c 1322,1322 1322,3342 0,4664 -1322,1322 -3342,1322 -4664,0 -1322,-1322 -1322,-3342 0,-4664 1322,-1322 3342,-1322 4664,0 z m -2332,-2332 0,0 z m 0,9329 0,0 z" style="fill:#ddd;fill-opacity:.50199998;stroke:#fff;stroke-opacity:.50199998"/><path id="path142" d="m 9198,9039 c 1322,1322 1322,3342 0,4664 -1322,1322 -3342,1322 -4664,0 -1322,-1322 -1322,-3342 0,-4664 1322,-1322 3342,-1322 4664,0 z" style="fill:none;stroke:#ccc;stroke-width:100"/></g></g><g id="g144" class="com.sun.star.drawing.CustomShape"><g id="id13"><path id="path147" d="m 16481,16322 c 1322,1322 1322,3342 0,4664 -1322,1322 -3342,1322 -4664,0 -1322,-1322 -1322,-3342 0,-4664 1322,-1322 3342,-1322 4664,0 z m -2332,-2332 0,0 z m 0,9329 0,0 z" style="fill:#ddd;fill-opacity:.50199998;stroke:#fff;stroke-opacity:.50199998"/><path id="path149" d="m 16481,16322 c 1322,1322 1322,3342 0,4664 -1322,1322 -3342,1322 -4664,0 -1322,-1322 -1322,-3342 0,-4664 1322,-1322 3342,-1322 4664,0 z" style="fill:none;stroke:#ccc;stroke-width:100"/></g></g></g></g></g></g></g><path style="fill:none;fill-rule:evenodd;stroke:red;stroke-width:146.7555561;stroke-linecap:butt;stroke-linejoin:miter;stroke-opacity:1;stroke-miterlimit:4;stroke-dasharray:none" id="path4585" d="M 1407.9184,118.09344 2737.1822,1258.586 2469.7563,1612.532 487.65889,55.169708 117.98199,503.50126 2674.2585,2579.9843 2273.1197,2988.9884 180.90572,1038.353 15.730932,1683.3212 1242.7436,2768.7555"/></svg>